<svg width="121" height="22" viewBox="0 0 121 22" fill="none" xmlns="http://www.w3.org/2000/svg">
<path d="M11 1.83333L13.8325 7.57166L20.1667 8.4975L15.5833 12.9617L16.665 19.2683L11 16.2892L5.33501 19.2683L6.41668 12.9617L1.83334 8.4975L8.16751 7.57166L11 1.83333Z" fill="#A83248" stroke="#E0E0E0" stroke-width="1.5" stroke-linecap="round" stroke-linejoin="round"/>
<path d="M110 1.83333L112.833 7.57166L119.167 8.4975L114.583 12.9617L115.665 19.2683L110 16.2892L104.335 19.2683L105.417 12.9617L100.833 8.4975L107.168 7.57166L110 1.83333Z" fill="#666666" stroke="#E0E0E0" stroke-width="1.5" stroke-linecap="round" stroke-linejoin="round"/>
<path d="M85 1.83333L87.8325 7.57166L94.1667 8.4975L89.5833 12.9617L90.665 19.2683L85 16.2892L79.335 19.2683L80.4167 12.9617L75.8333 8.4975L82.1675 7.57166L85 1.83333Z" fill="#666666" stroke="#E0E0E0" stroke-width="1.5" stroke-linecap="round" stroke-linejoin="round"/>
<path d="M60 1.83333L62.8325 7.57166L69.1667 8.4975L64.5833 12.9617L65.665 19.2683L60 16.2892L54.335 19.2683L55.4167 12.9617L50.8333 8.4975L57.1675 7.57166L60 1.83333Z" fill="#666666" stroke="#E0E0E0" stroke-width="1.5" stroke-linecap="round" stroke-linejoin="round"/>
<path d="M35 1.83333L37.8325 7.57166L44.1667 8.4975L39.5833 12.9617L40.665 19.2683L35 16.2892L29.335 19.2683L30.4167 12.9617L25.8333 8.4975L32.1675 7.57166L35 1.83333Z" fill="#666666" stroke="#E0E0E0" stroke-width="1.5" stroke-linecap="round" stroke-linejoin="round"/>
<path d="M35.0884 3.68797V15.5356C34.9416 15.5195 34.791 15.5472 34.6567 15.6177L30.3364 17.8891L31.1616 13.0806C31.2031 12.8373 31.1226 12.5887 30.9458 12.4165L27.4507 9.01219L32.2817 8.30614C32.5256 8.27036 32.7371 8.117 32.8462 7.89598L35.0054 3.52L35.0884 3.68797Z" fill="#A83248"/>
</svg>
