<svg width="122" height="22" viewBox="0 0 122 22" fill="none" xmlns="http://www.w3.org/2000/svg">
<path d="M111 1.83334L113.833 7.57168L120.167 8.49751L115.583 12.9617L116.665 19.2683L111 16.2892L105.335 19.2683L106.417 12.9617L101.833 8.49751L108.168 7.57168L111 1.83334Z" fill="#666666" stroke="#E0E0E0" stroke-width="1.5" stroke-linecap="round" stroke-linejoin="round"/>
<path d="M86 1.83334L88.8325 7.57168L95.1667 8.49751L90.5833 12.9617L91.665 19.2683L86 16.2892L80.335 19.2683L81.4167 12.9617L76.8333 8.49751L83.1675 7.57168L86 1.83334Z" fill="#666666" stroke="#E0E0E0" stroke-width="1.5" stroke-linecap="round" stroke-linejoin="round"/>
<path d="M61 1.83334L63.8325 7.57168L70.1667 8.49751L65.5833 12.9617L66.665 19.2683L61 16.2892L55.335 19.2683L56.4167 12.9617L51.8333 8.49751L58.1675 7.57168L61 1.83334Z" fill="#666666" stroke="#E0E0E0" stroke-width="1.5" stroke-linecap="round" stroke-linejoin="round"/>
<path d="M36 1.83334L38.8325 7.57168L45.1667 8.49751L40.5833 12.9617L41.665 19.2683L36 16.2892L30.335 19.2683L31.4167 12.9617L26.8333 8.49751L33.1675 7.57168L36 1.83334Z" fill="#666666" stroke="#E0E0E0" stroke-width="1.5" stroke-linecap="round" stroke-linejoin="round"/>
<path d="M11 1.83334L13.8325 7.57168L20.1667 8.49751L15.5833 12.9617L16.665 19.2683L11 16.2892L5.33501 19.2683L6.41668 12.9617L1.83334 8.49751L8.16751 7.57168L11 1.83334Z" fill="#666666" stroke="#E0E0E0" stroke-width="1.5" stroke-linecap="round" stroke-linejoin="round"/>
</svg>
