<svg width="121" height="22" viewBox="0 0 121 22" fill="none" xmlns="http://www.w3.org/2000/svg">
<path d="M11 1.83333L13.8325 7.57167L20.1667 8.4975L15.5833 12.9617L16.665 19.2683L11 16.2892L5.33501 19.2683L6.41668 12.9617L1.83334 8.4975L8.16751 7.57167L11 1.83333Z" fill="#A83248" stroke="#E0E0E0" stroke-width="1.5" stroke-linecap="round" stroke-linejoin="round"/>
<path d="M110 1.83333L112.833 7.57167L119.167 8.4975L114.583 12.9617L115.665 19.2683L110 16.2892L104.335 19.2683L105.417 12.9617L100.833 8.4975L107.168 7.57167L110 1.83333Z" fill="#666666" stroke="#E0E0E0" stroke-width="1.5" stroke-linecap="round" stroke-linejoin="round"/>
<path d="M60.5 1.83333L63.2038 7.57167L69.25 8.4975L64.875 12.9617L65.9075 19.2683L60.5 16.2892L55.0925 19.2683L56.125 12.9617L51.75 8.4975L57.7962 7.57167L60.5 1.83333Z" fill="#A83248" stroke="#E0E0E0" stroke-width="1.5" stroke-linecap="round" stroke-linejoin="round"/>
<path d="M36 1.83333L38.8325 7.57167L45.1667 8.4975L40.5833 12.9617L41.665 19.2683L36 16.2892L30.335 19.2683L31.4167 12.9617L26.8333 8.4975L33.1675 7.57167L36 1.83333Z" fill="#A83248" stroke="#E0E0E0" stroke-width="1.5" stroke-linecap="round" stroke-linejoin="round"/>
<path d="M85 1.83333L87.8325 7.57167L94.1667 8.4975L89.5833 12.9617L90.665 19.2683L85 16.2892L79.335 19.2683L80.4167 12.9617L75.8333 8.4975L82.1675 7.57167L85 1.83333Z" fill="#666666" stroke="#E0E0E0" stroke-width="1.5" stroke-linecap="round" stroke-linejoin="round"/>
<path d="M78.5916 19.2397L78.5955 19.3442C78.5878 19.2753 78.5893 19.2047 78.6014 19.1343C78.5954 19.1693 78.5926 19.2048 78.5916 19.2397ZM85.0887 3.68993V15.5356C84.9416 15.5192 84.7906 15.5469 84.6561 15.6177L80.3358 17.8891L81.1609 13.0806C81.2025 12.8373 81.1219 12.5887 80.9451 12.4165L77.45 9.01219L82.2811 8.30614C82.5251 8.27047 82.7364 8.11712 82.8455 7.89598L85.0047 3.52L85.0887 3.68993Z" fill="#A83248"/>
</svg>
